<svg viewBox="0 0 900 480" width="900" height="480" xmlns="http://www.w3.org/2000/svg">
  <defs>
    <filter id="sg" x="-10%" y="-10%" width="120%" height="120%">
      <feGaussianBlur stdDeviation="1.5" result="b"/>
      <feMerge><feMergeNode in="b"/><feMergeNode in="SourceGraphic"/></feMerge>
    </filter>
  </defs>

  <rect width="900" height="480" rx="14" fill="#0d0d1a"/>

  <!-- Header -->
  <text x="32" y="36" font-family="'Segoe UI', Arial, sans-serif" font-size="20" font-weight="600" fill="white">Voorspellingen per opleiding</text>
  <text x="32" y="56" font-family="'Segoe UI', Arial, sans-serif" font-size="12" fill="#666">Collegejaar 2024/2025 · Ensemble vs. werkelijk per programma</text>

  <!-- Legend -->
  <circle cx="50" cy="76" r="4" fill="#92FE9D"/>
  <text x="60" y="80" font-family="'Segoe UI', Arial, sans-serif" font-size="11" fill="#999">Werkelijk</text>
  <circle cx="145" cy="76" r="4" fill="#ffd54f"/>
  <text x="155" y="80" font-family="'Segoe UI', Arial, sans-serif" font-size="11" fill="#999">Ensemble</text>
  <rect x="230" y="72" width="14" height="8" rx="2" fill="#ffd54f" opacity="0.15"/>
  <text x="250" y="80" font-family="'Segoe UI', Arial, sans-serif" font-size="11" fill="#999">95% interval</text>

  <!-- Row 1: B Kunstmatige Intelligentie -->
  <rect x="20" y="95" width="860" height="82" rx="8" fill="white" opacity="0.03"/>
  <text x="36" y="118" font-family="'Segoe UI', Arial, sans-serif" font-size="13" font-weight="600" fill="white">B Kunstmatige Intelligentie</text>
  <text x="36" y="134" font-family="'Segoe UI', Arial, sans-serif" font-size="10" fill="#666">NL · Eerstejaars</text>
  <text x="36" y="162" font-family="'Segoe UI', Arial, sans-serif" font-size="11" fill="#92FE9D">287</text>
  <text x="72" y="162" font-family="'Segoe UI', Arial, sans-serif" font-size="11" fill="#666">vs</text>
  <text x="90" y="162" font-family="'Segoe UI', Arial, sans-serif" font-size="11" fill="#ffd54f">281</text>
  <text x="130" y="162" font-family="'Segoe UI', Arial, sans-serif" font-size="10" fill="#ff8a80">MAE 4.2</text>
  <!-- Sparkline chart area -->
  <polygon points="240,168 320,164 400,156 480,145 560,135 640,128 720,124 800,122 860,121
                   860,115 800,116 720,117 640,120 560,126 480,134 400,144 320,155 240,162"
           fill="#ffd54f" opacity="0.08"/>
  <polyline points="240,165 320,160 400,150 480,140 560,130 640,124 720,120 800,119 860,118"
            fill="none" stroke="#ffd54f" stroke-width="2" stroke-linecap="round" stroke-linejoin="round" filter="url(#sg)"/>
  <polyline points="240,168 320,162 400,155 480,142 560,133 640,126 720,122 800,120 860,119"
            fill="none" stroke="#92FE9D" stroke-width="1.5" stroke-linecap="round" stroke-linejoin="round" opacity="0.9"/>
  <circle cx="860" cy="118" r="3" fill="#ffd54f">
    <animate attributeName="r" values="2;4;2" dur="3s" repeatCount="indefinite"/>
  </circle>
  <circle cx="860" cy="119" r="2.5" fill="#92FE9D" opacity="0.8"/>

  <!-- Row 2: B Geneeskunde -->
  <rect x="20" y="187" width="860" height="82" rx="8" fill="white" opacity="0.03"/>
  <text x="36" y="210" font-family="'Segoe UI', Arial, sans-serif" font-size="13" font-weight="600" fill="white">B Geneeskunde</text>
  <text x="36" y="226" font-family="'Segoe UI', Arial, sans-serif" font-size="10" fill="#666">NL · Eerstejaars</text>
  <text x="36" y="254" font-family="'Segoe UI', Arial, sans-serif" font-size="11" fill="#92FE9D">412</text>
  <text x="72" y="254" font-family="'Segoe UI', Arial, sans-serif" font-size="11" fill="#666">vs</text>
  <text x="90" y="254" font-family="'Segoe UI', Arial, sans-serif" font-size="11" fill="#ffd54f">405</text>
  <text x="130" y="254" font-family="'Segoe UI', Arial, sans-serif" font-size="10" fill="#ff8a80">MAE 5.1</text>
  <polygon points="240,260 320,255 400,248 480,238 560,228 640,220 720,215 800,213 860,212
                   860,204 800,206 720,207 640,210 560,218 480,226 400,236 320,245 240,252"
           fill="#ffd54f" opacity="0.08"/>
  <polyline points="240,256 320,250 400,242 480,232 560,222 640,215 720,211 800,209 860,208"
            fill="none" stroke="#ffd54f" stroke-width="2" stroke-linecap="round" stroke-linejoin="round" filter="url(#sg)"/>
  <polyline points="240,258 320,254 400,245 480,234 560,225 640,217 720,213 800,211 860,210"
            fill="none" stroke="#92FE9D" stroke-width="1.5" stroke-linecap="round" stroke-linejoin="round" opacity="0.9"/>
  <circle cx="860" cy="208" r="3" fill="#ffd54f">
    <animate attributeName="r" values="2;4;2" dur="3.5s" repeatCount="indefinite"/>
  </circle>
  <circle cx="860" cy="210" r="2.5" fill="#92FE9D" opacity="0.8"/>

  <!-- Row 3: B Psychologie -->
  <rect x="20" y="279" width="860" height="82" rx="8" fill="white" opacity="0.03"/>
  <text x="36" y="302" font-family="'Segoe UI', Arial, sans-serif" font-size="13" font-weight="600" fill="white">B Psychologie</text>
  <text x="36" y="318" font-family="'Segoe UI', Arial, sans-serif" font-size="10" fill="#666">NL · Eerstejaars</text>
  <text x="36" y="346" font-family="'Segoe UI', Arial, sans-serif" font-size="11" fill="#92FE9D">356</text>
  <text x="72" y="346" font-family="'Segoe UI', Arial, sans-serif" font-size="11" fill="#666">vs</text>
  <text x="90" y="346" font-family="'Segoe UI', Arial, sans-serif" font-size="11" fill="#ffd54f">348</text>
  <text x="130" y="346" font-family="'Segoe UI', Arial, sans-serif" font-size="10" fill="#92FE9D">MAE 3.8</text>
  <polygon points="240,352 320,348 400,340 480,330 560,320 640,313 720,308 800,306 860,305
                   860,297 800,298 720,300 640,304 560,310 480,320 400,328 320,338 240,344"
           fill="#ffd54f" opacity="0.08"/>
  <polyline points="240,348 320,343 400,334 480,325 560,315 640,308 720,304 800,302 860,301"
            fill="none" stroke="#ffd54f" stroke-width="2" stroke-linecap="round" stroke-linejoin="round" filter="url(#sg)"/>
  <polyline points="240,350 320,346 400,338 480,328 560,318 640,312 720,307 800,305 860,304"
            fill="none" stroke="#92FE9D" stroke-width="1.5" stroke-linecap="round" stroke-linejoin="round" opacity="0.9"/>
  <circle cx="860" cy="301" r="3" fill="#ffd54f">
    <animate attributeName="r" values="2;4;2" dur="2.8s" repeatCount="indefinite"/>
  </circle>
  <circle cx="860" cy="304" r="2.5" fill="#92FE9D" opacity="0.8"/>

  <!-- Row 4: B Sociologie -->
  <rect x="20" y="371" width="860" height="82" rx="8" fill="white" opacity="0.03"/>
  <text x="36" y="394" font-family="'Segoe UI', Arial, sans-serif" font-size="13" font-weight="600" fill="white">B Sociologie</text>
  <text x="36" y="410" font-family="'Segoe UI', Arial, sans-serif" font-size="10" fill="#666">NL · Eerstejaars</text>
  <text x="36" y="438" font-family="'Segoe UI', Arial, sans-serif" font-size="11" fill="#92FE9D">89</text>
  <text x="65" y="438" font-family="'Segoe UI', Arial, sans-serif" font-size="11" fill="#666">vs</text>
  <text x="83" y="438" font-family="'Segoe UI', Arial, sans-serif" font-size="11" fill="#ffd54f">92</text>
  <text x="115" y="438" font-family="'Segoe UI', Arial, sans-serif" font-size="10" fill="#92FE9D">MAE 2.1</text>
  <polygon points="240,444 320,440 400,434 480,426 560,418 640,412 720,408 800,406 860,405
                   860,397 800,398 720,400 640,403 560,408 480,416 400,424 320,432 240,438"
           fill="#ffd54f" opacity="0.08"/>
  <polyline points="240,441 320,436 400,429 480,421 560,413 640,408 720,404 800,402 860,401"
            fill="none" stroke="#ffd54f" stroke-width="2" stroke-linecap="round" stroke-linejoin="round" filter="url(#sg)"/>
  <polyline points="240,442 320,438 400,432 480,423 560,416 640,410 720,406 800,404 860,403"
            fill="none" stroke="#92FE9D" stroke-width="1.5" stroke-linecap="round" stroke-linejoin="round" opacity="0.9"/>
  <circle cx="860" cy="401" r="3" fill="#ffd54f">
    <animate attributeName="r" values="2;4;2" dur="3.2s" repeatCount="indefinite"/>
  </circle>
  <circle cx="860" cy="403" r="2.5" fill="#92FE9D" opacity="0.8"/>

  <!-- X-axis labels (shared) -->
  <text x="240" y="470" font-family="'Segoe UI', Arial, sans-serif" font-size="9" fill="#444" text-anchor="middle">wk 10</text>
  <text x="400" y="470" font-family="'Segoe UI', Arial, sans-serif" font-size="9" fill="#444" text-anchor="middle">wk 20</text>
  <text x="560" y="470" font-family="'Segoe UI', Arial, sans-serif" font-size="9" fill="#444" text-anchor="middle">wk 30</text>
  <text x="720" y="470" font-family="'Segoe UI', Arial, sans-serif" font-size="9" fill="#444" text-anchor="middle">wk 40</text>
  <text x="860" y="470" font-family="'Segoe UI', Arial, sans-serif" font-size="9" fill="#444" text-anchor="middle">wk 52</text>
</svg>
