<svg viewBox="0 0 900 460" width="900" height="460" xmlns="http://www.w3.org/2000/svg">
  <defs>
    <filter id="sgl" x="-10%" y="-10%" width="120%" height="120%">
      <feGaussianBlur stdDeviation="2" result="b"/>
      <feMerge><feMergeNode in="b"/><feMergeNode in="SourceGraphic"/></feMerge>
    </filter>
    <linearGradient id="ba95" x1="0" y1="0" x2="0" y2="1">
      <stop offset="0%" stop-color="#ffd54f" stop-opacity="0.12"/>
      <stop offset="50%" stop-color="#ffd54f" stop-opacity="0.05"/>
      <stop offset="100%" stop-color="#ffd54f" stop-opacity="0.12"/>
    </linearGradient>
    <linearGradient id="ba68" x1="0" y1="0" x2="0" y2="1">
      <stop offset="0%" stop-color="#ffd54f" stop-opacity="0.2"/>
      <stop offset="50%" stop-color="#ffd54f" stop-opacity="0.08"/>
      <stop offset="100%" stop-color="#ffd54f" stop-opacity="0.2"/>
    </linearGradient>
  </defs>

  <rect width="900" height="460" rx="14" fill="#0d0d1a"/>

  <!-- Title -->
  <text x="32" y="36" font-family="'Segoe UI', Arial, sans-serif" font-size="18" font-weight="600" fill="white">B Kunstmatige Intelligentie — Eerstejaars NL</text>
  <text x="32" y="56" font-family="'Segoe UI', Arial, sans-serif" font-size="12" fill="#666">Collegejaar 2024/2025 · Ensemble voorspelling met foutmarges</text>

  <!-- Metric cards -->
  <rect x="32" y="72" width="125" height="56" rx="10" fill="#92FE9D" opacity="0.06"/>
  <text x="46" y="92" font-family="'Segoe UI', Arial, sans-serif" font-size="10" fill="#888" letter-spacing="1">WERKELIJK</text>
  <text x="46" y="117" font-family="'Segoe UI', Arial, sans-serif" font-size="24" font-weight="700" fill="#92FE9D">287</text>

  <rect x="170" y="72" width="125" height="56" rx="10" fill="#ffd54f" opacity="0.06"/>
  <text x="184" y="92" font-family="'Segoe UI', Arial, sans-serif" font-size="10" fill="#888" letter-spacing="1">ENSEMBLE</text>
  <text x="184" y="117" font-family="'Segoe UI', Arial, sans-serif" font-size="24" font-weight="700" fill="#ffd54f">281</text>

  <rect x="308" y="72" width="125" height="56" rx="10" fill="white" opacity="0.04"/>
  <text x="322" y="92" font-family="'Segoe UI', Arial, sans-serif" font-size="10" fill="#888" letter-spacing="1">MAE</text>
  <text x="322" y="117" font-family="'Segoe UI', Arial, sans-serif" font-size="24" font-weight="700" fill="#ff8a80">4.2</text>

  <rect x="446" y="72" width="125" height="56" rx="10" fill="white" opacity="0.04"/>
  <text x="460" y="92" font-family="'Segoe UI', Arial, sans-serif" font-size="10" fill="#888" letter-spacing="1">MAPE</text>
  <text x="460" y="117" font-family="'Segoe UI', Arial, sans-serif" font-size="24" font-weight="700" fill="#ff8a80">1.5%</text>

  <rect x="584" y="72" width="145" height="56" rx="10" fill="white" opacity="0.04"/>
  <text x="598" y="92" font-family="'Segoe UI', Arial, sans-serif" font-size="10" fill="#888" letter-spacing="1">95% INTERVAL</text>
  <text x="598" y="117" font-family="'Segoe UI', Arial, sans-serif" font-size="24" font-weight="700" fill="#aaa">269 – 293</text>

  <rect x="742" y="72" width="125" height="56" rx="10" fill="#92FE9D" opacity="0.06"/>
  <text x="756" y="92" font-family="'Segoe UI', Arial, sans-serif" font-size="10" fill="#888" letter-spacing="1">STATUS</text>
  <text x="756" y="117" font-family="'Segoe UI', Arial, sans-serif" font-size="18" font-weight="700" fill="#92FE9D">Stabiel ✓</text>

  <!-- Legend -->
  <circle cx="50" cy="152" r="5" fill="#92FE9D"/>
  <text x="62" y="156" font-family="'Segoe UI', Arial, sans-serif" font-size="12" fill="#ccc">Werkelijk</text>
  <circle cx="160" cy="152" r="5" fill="#ffd54f"/>
  <text x="172" y="156" font-family="'Segoe UI', Arial, sans-serif" font-size="12" fill="#ccc">Ensemble</text>
  <rect x="260" y="147" width="20" height="10" rx="3" fill="#ffd54f" opacity="0.2"/>
  <text x="286" y="156" font-family="'Segoe UI', Arial, sans-serif" font-size="12" fill="#ccc">68% interval</text>
  <rect x="395" y="147" width="20" height="10" rx="3" fill="#ffd54f" opacity="0.1"/>
  <text x="421" y="156" font-family="'Segoe UI', Arial, sans-serif" font-size="12" fill="#ccc">95% interval</text>

  <!-- Y-axis -->
  <text x="55" y="188" font-family="'Segoe UI', Arial, sans-serif" font-size="10" fill="#444" text-anchor="end">320</text>
  <text x="55" y="228" font-family="'Segoe UI', Arial, sans-serif" font-size="10" fill="#444" text-anchor="end">280</text>
  <text x="55" y="268" font-family="'Segoe UI', Arial, sans-serif" font-size="10" fill="#444" text-anchor="end">240</text>
  <text x="55" y="308" font-family="'Segoe UI', Arial, sans-serif" font-size="10" fill="#444" text-anchor="end">200</text>
  <text x="55" y="348" font-family="'Segoe UI', Arial, sans-serif" font-size="10" fill="#444" text-anchor="end">160</text>
  <text x="55" y="388" font-family="'Segoe UI', Arial, sans-serif" font-size="10" fill="#444" text-anchor="end">120</text>

  <!-- Grid -->
  <line x1="65" y1="184" x2="860" y2="184" stroke="#1c1c2e" stroke-width="0.5"/>
  <line x1="65" y1="224" x2="860" y2="224" stroke="#1c1c2e" stroke-width="0.5"/>
  <line x1="65" y1="264" x2="860" y2="264" stroke="#1c1c2e" stroke-width="0.5"/>
  <line x1="65" y1="304" x2="860" y2="304" stroke="#1c1c2e" stroke-width="0.5"/>
  <line x1="65" y1="344" x2="860" y2="344" stroke="#1c1c2e" stroke-width="0.5"/>
  <line x1="65" y1="384" x2="860" y2="384" stroke="#1c1c2e" stroke-width="0.5"/>
  <line x1="65" y1="184" x2="65" y2="392" stroke="#333" stroke-width="1"/>
  <line x1="65" y1="392" x2="860" y2="392" stroke="#333" stroke-width="1"/>

  <!-- 95% confidence band — wide, lines far apart -->
  <!-- Ensemble prediction ~375→190, Werkelijk ~388→205. Band: upper=355→170, lower=395→215 -->
  <polygon points="65,395 145,392 225,382 305,365 385,338 465,308 545,278 625,255 705,240 785,228 860,220
                   860,184 785,188 705,192 625,200 545,215 465,240 385,268 305,300 225,335 145,365 65,380"
           fill="url(#ba95)"/>

  <!-- 68% confidence band — narrower -->
  <polygon points="65,390 145,386 225,374 305,354 385,325 465,296 545,268 625,248 705,234 785,224 860,216
                   860,190 785,195 705,200 625,210 545,225 465,250 385,280 305,312 225,346 145,375 65,385"
           fill="url(#ba68)"/>

  <!-- Ensemble prediction line (yellow) — far from werkelijk -->
  <polyline points="65,388 145,380 225,360 305,333 385,302 465,273 545,246 625,228 705,216 785,208 860,202"
            fill="none" stroke="#ffd54f" stroke-width="2.5" stroke-linecap="round" stroke-linejoin="round" filter="url(#sgl)"/>

  <!-- Werkelijk line (green) — clearly separated -->
  <polyline points="65,392 145,385 225,370 305,348 385,320 465,288 545,258 625,238 705,225 785,218 860,215"
            fill="none" stroke="#92FE9D" stroke-width="2.5" stroke-linecap="round" stroke-linejoin="round" filter="url(#sgl)"/>

  <!-- Data points on werkelijk -->
  <circle cx="65" cy="392" r="3" fill="#92FE9D" opacity="0.6"/>
  <circle cx="145" cy="385" r="3" fill="#92FE9D" opacity="0.6"/>
  <circle cx="225" cy="370" r="3" fill="#92FE9D" opacity="0.6"/>
  <circle cx="305" cy="348" r="3" fill="#92FE9D" opacity="0.6"/>
  <circle cx="385" cy="320" r="3" fill="#92FE9D" opacity="0.6"/>
  <circle cx="465" cy="288" r="3" fill="#92FE9D" opacity="0.6"/>
  <circle cx="545" cy="258" r="3" fill="#92FE9D" opacity="0.6"/>
  <circle cx="625" cy="238" r="3" fill="#92FE9D" opacity="0.6"/>
  <circle cx="705" cy="225" r="3" fill="#92FE9D" opacity="0.6"/>
  <circle cx="785" cy="218" r="3" fill="#92FE9D" opacity="0.6"/>
  <circle cx="860" cy="215" r="4" fill="#92FE9D">
    <animate attributeName="r" values="3;5;3" dur="2.5s" repeatCount="indefinite"/>
  </circle>

  <!-- Data points on ensemble -->
  <circle cx="860" cy="202" r="4" fill="#ffd54f">
    <animate attributeName="r" values="3;5;3" dur="3s" repeatCount="indefinite"/>
  </circle>

  <!-- Convergence zone -->
  <line x1="545" y1="184" x2="545" y2="392" stroke="#92FE9D" stroke-width="0.6" stroke-dasharray="4,3" opacity="0.2"/>
  <text x="555" y="198" font-family="'Segoe UI', Arial, sans-serif" font-size="10" fill="#92FE9D" opacity="0.4">stabiel vanaf wk 30</text>

  <!-- X-axis -->
  <text x="65" y="410" font-family="'Segoe UI', Arial, sans-serif" font-size="10" fill="#444" text-anchor="middle">wk 1</text>
  <text x="145" y="410" font-family="'Segoe UI', Arial, sans-serif" font-size="10" fill="#444" text-anchor="middle">wk 5</text>
  <text x="225" y="410" font-family="'Segoe UI', Arial, sans-serif" font-size="10" fill="#444" text-anchor="middle">wk 10</text>
  <text x="305" y="410" font-family="'Segoe UI', Arial, sans-serif" font-size="10" fill="#444" text-anchor="middle">wk 15</text>
  <text x="385" y="410" font-family="'Segoe UI', Arial, sans-serif" font-size="10" fill="#444" text-anchor="middle">wk 20</text>
  <text x="465" y="410" font-family="'Segoe UI', Arial, sans-serif" font-size="10" fill="#444" text-anchor="middle">wk 25</text>
  <text x="545" y="410" font-family="'Segoe UI', Arial, sans-serif" font-size="10" fill="#444" text-anchor="middle">wk 30</text>
  <text x="625" y="410" font-family="'Segoe UI', Arial, sans-serif" font-size="10" fill="#444" text-anchor="middle">wk 35</text>
  <text x="705" y="410" font-family="'Segoe UI', Arial, sans-serif" font-size="10" fill="#444" text-anchor="middle">wk 40</text>
  <text x="785" y="410" font-family="'Segoe UI', Arial, sans-serif" font-size="10" fill="#444" text-anchor="middle">wk 45</text>
  <text x="860" y="410" font-family="'Segoe UI', Arial, sans-serif" font-size="10" fill="#444" text-anchor="middle">wk 52</text>

  <text x="450" y="440" text-anchor="middle" font-family="'Segoe UI', Arial, sans-serif" font-size="11" fill="#555">Wekelijks cumulatieve aanmeldingen → Ensemble voorspelling met 68% en 95% betrouwbaarheidsinterval</text>
</svg>
